<svg version="1.0" xmlns="http://www.w3.org/2000/svg" width="342.7" height="137.3" viewBox="0 0 257 103">
  <path d="M151 2l-17 19v4c1 2 1 2-1 4-3 1-3 1-10-5-8-7-11-8-12-6 0 2 0 2-2 0-1-1-2-1-13 2l-14 5c-2 2-1 14 0 16l3 1h1c0 1-2 2-6 2h-8c-3 1-3 1-3-2 0-8-9-17-19-20-6-2-21-1-29 2-9 3-20 10-20 12l6 12c6 10 6 10 9 10 2-1 3 0 12 22l12 22c4 0 19-5 20-7l-3-15c0-2 0-2 3 1 5 7 15 9 24 5l6-2v2c0 2 1 3 8 2l10-1c3-1 3-1 4-8v-7l17 9 18 8c1 0 2-1 2-3v-3h12l13-2 6-11 6-11 6 15 7 15c2 1 20-1 22-2 1-1 0-2-1-6l-2-5 4-3c5-3 5-4 3-15-1-6-1-6 1-9 5-4 6-3 4 10-2 10-2 13-1 14l11 2c10 0 10 0 10-2l6-55-3-5c-4-4-11-4-15 0l-3 4c0 1-1 1-5-1-5-2-20-2-29 0l-7 2-3-6c-2-7-4-8-6-5a248 248 0 00-15 28l-3-3-7-5-5-3 5-2 5-5c0-1-9-16-11-16l-3 1zm4 10c3 3 2 4-4 8-11 5-11 4-4-4 2-4 5-6 5-6l3 2zm94 5c4 3 2 9-3 9-4 0-6-2-6-5 0-6 5-8 9-4zm-53 20l18 46h-11l-7-14c-6-14-7-15-9-16h-4c-1 0-4 5-6 11l-7 12-13 1c0-3 5-12 10-16 5-6 5-6 4-9-1-2-1-3 7-19l9-15 9 19zm31-16c4 1 8 5 8 9 0 3-5 9-12 14l-5 4v5l2 10v5h-7l-4-13c-5-20-5-20-7-20-1 0-2-1-3-6l-2-6 4-1c8-2 20-3 26-1zM103 31c0 10 1 10 7 2 2-4 5-7 6-7l10 10-7 9-8 8 6 2 11 7c3 3 6 5 10 6 4 2 5 2 5 5v6l-19-8-18-9v19h-3c-6 2-7 1-7-3l2-9c1-6 0-12-3-17-1-2-2-5-2-11-1-7-1-8-3-7-2 0-2 0-2-2s2-3 6-4c9-3 9-3 9 3zm-48 0c11 7 10 21-2 32l-6 5 2 8 3 11 1 5-5 1-5 1-11-23-11-22-3 1c-1 0-3-1-5-5l-3-7c0-2 8-6 16-8l15-2c9 1 10 1 14 3zm103 2c5 3 5 5-3 13l-7 7 8-2c3-3 4-2 8 1 3 4 2 5-5 9-8 4-18 5-23 1-5-2-8-7-8-13 0-7 3-13 11-16 4-3 15-2 19 0zm91 7l-2 19-1 11-6-1h-6l1-12c2-14 2-16 1-16l-2-1c0-3 3-5 8-6 8-3 7-3 7 6zM88 51c6 3 8 12 4 20-5 11-20 14-27 6s-4-20 7-26c3-2 12-3 16 0zm63 23c-1 3-1 3-2 2 0-3 1-5 3-5l-1 3z"/>
  <path d="M185 40c-3 6-2 6 1 6s3 0 3-3c-2-6-3-7-4-3zM217 32c-2 1-3 4-1 7 1 1 2 1 5-2s3-4 1-5h-5zM41 43c-2 1-1 2 1 10l3 8c2 0 6-4 8-7 1-4 1-7-2-10-2-2-7-3-10-1zm7 7v1l-1-1v-2l1 2zM140 41c-3 2-4 7-1 11 1 1 1 1 7-5s6-6 4-8c-3-2-8-1-11 1zM74 54c-5 5-2 13 5 13l5-1c2 0 4-6 4-8-1-1-1-1-3 1-1 2-4 3-7 1l-1-4 1-4-4 2z"/>
</svg>
